<svg width="119" height="12" viewBox="0 0 119 12" fill="none" xmlns="http://www.w3.org/2000/svg">
<path d="M7.27344 5.54492V7.02832H0.451172V5.54492H7.27344ZM4.66211 2.75586V10.002H3.06934V2.75586H4.66211ZM10.7458 5.27832H11.7302C12.113 5.27832 12.4297 5.21224 12.6804 5.08008C12.9356 4.94792 13.1247 4.76562 13.2478 4.5332C13.3708 4.30078 13.4323 4.03418 13.4323 3.7334C13.4323 3.41895 13.3754 3.15007 13.2614 2.92676C13.1521 2.69889 12.9835 2.52344 12.7556 2.40039C12.5323 2.27734 12.2474 2.21582 11.9011 2.21582C11.6094 2.21582 11.3451 2.27507 11.1081 2.39355C10.8757 2.50749 10.6911 2.67155 10.5544 2.88574C10.4177 3.09538 10.3493 3.34603 10.3493 3.6377H8.69504C8.69504 3.10905 8.83404 2.63965 9.11203 2.22949C9.39003 1.81934 9.76828 1.49805 10.2468 1.26562C10.7299 1.02865 11.2722 0.910156 11.8737 0.910156C12.5163 0.910156 13.0769 1.01725 13.5554 1.23145C14.0385 1.44108 14.4144 1.75553 14.6833 2.1748C14.9522 2.59408 15.0866 3.11361 15.0866 3.7334C15.0866 4.01595 15.0206 4.30306 14.8884 4.59473C14.7562 4.88639 14.5603 5.15299 14.3005 5.39453C14.0407 5.63151 13.7172 5.8252 13.3298 5.97559C12.9424 6.12142 12.4935 6.19434 11.9831 6.19434H10.7458V5.27832ZM10.7458 6.56348V5.66113H11.9831C12.5665 5.66113 13.0632 5.72949 13.4734 5.86621C13.8881 6.00293 14.2253 6.19206 14.4851 6.43359C14.7448 6.67057 14.934 6.94173 15.0525 7.24707C15.1755 7.55241 15.237 7.87598 15.237 8.21777C15.237 8.68262 15.1527 9.09733 14.9841 9.46191C14.82 9.82194 14.5853 10.1273 14.28 10.3779C13.9747 10.6286 13.6169 10.8177 13.2068 10.9453C12.8012 11.0729 12.3591 11.1367 11.8806 11.1367C11.4522 11.1367 11.042 11.0775 10.6501 10.959C10.2582 10.8405 9.90728 10.665 9.59738 10.4326C9.28749 10.1956 9.04139 9.90169 8.8591 9.55078C8.68137 9.19531 8.5925 8.78516 8.5925 8.32031H10.24C10.24 8.61654 10.3083 8.87858 10.445 9.10645C10.5863 9.32975 10.7823 9.50521 11.0329 9.63281C11.2881 9.76042 11.5798 9.82422 11.9079 9.82422C12.2543 9.82422 12.5528 9.7627 12.8034 9.63965C13.0541 9.5166 13.2455 9.33431 13.3777 9.09277C13.5144 8.85124 13.5827 8.55957 13.5827 8.21777C13.5827 7.8304 13.5075 7.51595 13.3571 7.27441C13.2068 7.03288 12.9926 6.85514 12.7146 6.74121C12.4366 6.62272 12.1085 6.56348 11.7302 6.56348H10.7458ZM23.5561 8.28613C23.5561 8.90592 23.4125 9.42773 23.1254 9.85156C22.8383 10.2754 22.4464 10.5967 21.9496 10.8154C21.4575 11.0296 20.9015 11.1367 20.2817 11.1367C19.6619 11.1367 19.1036 11.0296 18.6069 10.8154C18.1101 10.5967 17.7182 10.2754 17.4311 9.85156C17.144 9.42773 17.0004 8.90592 17.0004 8.28613C17.0004 7.87598 17.0802 7.50456 17.2397 7.17188C17.3992 6.83464 17.6248 6.54525 17.9164 6.30371C18.2127 6.05762 18.559 5.86849 18.9555 5.73633C19.3565 5.60417 19.794 5.53809 20.268 5.53809C20.8969 5.53809 21.4597 5.6543 21.9565 5.88672C22.4532 6.11914 22.8429 6.44043 23.1254 6.85059C23.4125 7.26074 23.5561 7.73926 23.5561 8.28613ZM21.9018 8.2041C21.9018 7.87142 21.8334 7.57975 21.6967 7.3291C21.56 7.07845 21.3686 6.88477 21.1225 6.74805C20.8764 6.61133 20.5916 6.54297 20.268 6.54297C19.9399 6.54297 19.6551 6.61133 19.4135 6.74805C19.172 6.88477 18.9829 7.07845 18.8461 7.3291C18.714 7.57975 18.6479 7.87142 18.6479 8.2041C18.6479 8.54134 18.714 8.83301 18.8461 9.0791C18.9783 9.32064 19.1674 9.50521 19.4135 9.63281C19.6596 9.76042 19.949 9.82422 20.2817 9.82422C20.6144 9.82422 20.9015 9.76042 21.143 9.63281C21.3845 9.50521 21.5714 9.32064 21.7036 9.0791C21.8357 8.83301 21.9018 8.54134 21.9018 8.2041ZM23.3305 3.66504C23.3305 4.16178 23.1983 4.60384 22.934 4.99121C22.6743 5.37858 22.3142 5.68392 21.8539 5.90723C21.3937 6.12598 20.8696 6.23535 20.2817 6.23535C19.6892 6.23535 19.1606 6.12598 18.6957 5.90723C18.2355 5.68392 17.8732 5.37858 17.6088 4.99121C17.3491 4.60384 17.2192 4.16178 17.2192 3.66504C17.2192 3.07259 17.3491 2.57357 17.6088 2.16797C17.8732 1.75781 18.2355 1.44564 18.6957 1.23145C19.156 1.01725 19.6824 0.910156 20.2748 0.910156C20.8673 0.910156 21.3937 1.01725 21.8539 1.23145C22.3142 1.44564 22.6743 1.75781 22.934 2.16797C23.1983 2.57357 23.3305 3.07259 23.3305 3.66504ZM21.683 3.71973C21.683 3.4235 21.6238 3.16374 21.5053 2.94043C21.3914 2.71257 21.2296 2.53483 21.02 2.40723C20.8103 2.27962 20.562 2.21582 20.2748 2.21582C19.9877 2.21582 19.7394 2.27734 19.5297 2.40039C19.3201 2.52344 19.1583 2.69661 19.0444 2.91992C18.9304 3.14323 18.8735 3.40983 18.8735 3.71973C18.8735 4.02507 18.9304 4.29167 19.0444 4.51953C19.1583 4.74284 19.3201 4.91829 19.5297 5.0459C19.7439 5.1735 19.9946 5.2373 20.2817 5.2373C20.5688 5.2373 20.8172 5.1735 21.0268 5.0459C21.2364 4.91829 21.3982 4.74284 21.5121 4.51953C21.6261 4.29167 21.683 4.02507 21.683 3.71973ZM35.5389 5.18945V6.81641C35.5389 7.5957 35.4615 8.26107 35.3065 8.8125C35.1561 9.35938 34.9374 9.80371 34.6503 10.1455C34.3632 10.4873 34.0191 10.738 33.618 10.8975C33.2216 11.057 32.7772 11.1367 32.285 11.1367C31.8931 11.1367 31.5285 11.0866 31.1913 10.9863C30.8586 10.8861 30.5578 10.7288 30.2889 10.5146C30.0201 10.3005 29.7899 10.0247 29.5985 9.6875C29.4117 9.3457 29.2658 8.93783 29.161 8.46387C29.0608 7.98991 29.0106 7.44076 29.0106 6.81641V5.18945C29.0106 4.4056 29.0881 3.74479 29.243 3.20703C29.398 2.66471 29.619 2.22493 29.9061 1.8877C30.1932 1.5459 30.535 1.29753 30.9315 1.14258C31.3326 0.98763 31.7792 0.910156 32.2714 0.910156C32.6679 0.910156 33.0324 0.960286 33.3651 1.06055C33.7024 1.15625 34.0031 1.30892 34.2675 1.51855C34.5363 1.72819 34.7642 2.00163 34.9511 2.33887C35.1425 2.67155 35.2883 3.07487 35.3886 3.54883C35.4888 4.01823 35.5389 4.5651 35.5389 5.18945ZM33.8915 7.04883V4.94336C33.8915 4.54688 33.8687 4.19824 33.8231 3.89746C33.7776 3.59212 33.7092 3.33464 33.618 3.125C33.5315 2.91081 33.4221 2.73763 33.2899 2.60547C33.1578 2.46875 33.0074 2.37077 32.8388 2.31152C32.6701 2.24772 32.481 2.21582 32.2714 2.21582C32.0162 2.21582 31.7883 2.26595 31.5878 2.36621C31.3873 2.46191 31.2186 2.61686 31.0819 2.83105C30.9452 3.04525 30.8404 3.3278 30.7675 3.67871C30.6991 4.02507 30.6649 4.44661 30.6649 4.94336V7.04883C30.6649 7.44987 30.6877 7.80306 30.7333 8.1084C30.7789 8.41374 30.8472 8.67578 30.9384 8.89453C31.0295 9.10872 31.1389 9.28646 31.2665 9.42773C31.3986 9.56445 31.549 9.66471 31.7177 9.72852C31.8908 9.79232 32.08 9.82422 32.285 9.82422C32.5448 9.82422 32.7749 9.77409 32.9755 9.67383C33.176 9.57357 33.3446 9.41406 33.4813 9.19531C33.618 8.97201 33.7206 8.68262 33.7889 8.32715C33.8573 7.97168 33.8915 7.54557 33.8915 7.04883ZM38.6148 9.70117H38.7516C39.3805 9.70117 39.9046 9.61914 40.3238 9.45508C40.7477 9.28646 41.0849 9.05404 41.3355 8.75781C41.5862 8.46159 41.7662 8.11296 41.8756 7.71191C41.985 7.31087 42.0396 6.87565 42.0396 6.40625V4.69043C42.0396 4.28483 41.9964 3.92936 41.9098 3.62402C41.8277 3.31413 41.7092 3.05664 41.5543 2.85156C41.4039 2.64193 41.2285 2.4847 41.0279 2.37988C40.832 2.27507 40.6201 2.22266 40.3922 2.22266C40.1415 2.22266 39.916 2.27962 39.7154 2.39355C39.5195 2.50293 39.3531 2.6556 39.2164 2.85156C39.0842 3.04297 38.9817 3.26855 38.9088 3.52832C38.8404 3.78353 38.8063 4.05697 38.8063 4.34863C38.8063 4.62207 38.8382 4.88639 38.902 5.1416C38.9703 5.39225 39.0706 5.61556 39.2027 5.81152C39.3349 6.00749 39.5012 6.16243 39.7018 6.27637C39.9023 6.3903 40.137 6.44727 40.4059 6.44727C40.6611 6.44727 40.8958 6.39941 41.11 6.30371C41.3242 6.20345 41.511 6.06901 41.6705 5.90039C41.83 5.73177 41.9553 5.54264 42.0465 5.33301C42.1376 5.12337 42.1878 4.90918 42.1969 4.69043L42.8258 4.88184C42.8258 5.22819 42.7529 5.56999 42.607 5.90723C42.4658 6.23991 42.2675 6.54525 42.0123 6.82324C41.7617 7.09668 41.4677 7.31543 41.1305 7.47949C40.7978 7.64355 40.4355 7.72559 40.0436 7.72559C39.5696 7.72559 39.1503 7.63672 38.7857 7.45898C38.4257 7.27669 38.1249 7.0306 37.8834 6.7207C37.6464 6.41081 37.4687 6.05534 37.3502 5.6543C37.2317 5.25326 37.1725 4.83171 37.1725 4.38965C37.1725 3.91113 37.2454 3.46224 37.3912 3.04297C37.537 2.6237 37.749 2.25456 38.027 1.93555C38.3049 1.61198 38.6422 1.36133 39.0387 1.18359C39.4397 1.0013 39.8932 0.910156 40.399 0.910156C40.9368 0.910156 41.4085 1.01497 41.8141 1.22461C42.2197 1.43424 42.5615 1.72363 42.8395 2.09277C43.1174 2.46191 43.3271 2.8903 43.4684 3.37793C43.6096 3.86556 43.6803 4.38965 43.6803 4.9502V5.53125C43.6803 6.11914 43.6279 6.68652 43.523 7.2334C43.4182 7.77572 43.2473 8.2793 43.0104 8.74414C42.7779 9.20443 42.4703 9.61003 42.0875 9.96094C41.7092 10.3073 41.2444 10.5785 40.693 10.7744C40.1461 10.9658 39.5035 11.0615 38.7652 11.0615H38.6148V9.70117ZM50.5023 0.985352H50.7073V2.33203H50.5911C50.0032 2.33203 49.4951 2.42318 49.0667 2.60547C48.6429 2.78776 48.2943 3.03841 48.0208 3.35742C47.7474 3.67643 47.5423 4.05013 47.4056 4.47852C47.2734 4.90234 47.2073 5.35352 47.2073 5.83203V7.39746C47.2073 7.79395 47.2506 8.14486 47.3372 8.4502C47.4238 8.75098 47.5446 9.00391 47.6995 9.20898C47.859 9.40951 48.0413 9.56217 48.2464 9.66699C48.4515 9.77181 48.6725 9.82422 48.9095 9.82422C49.1556 9.82422 49.3789 9.77409 49.5794 9.67383C49.7799 9.56901 49.9508 9.42546 50.0921 9.24316C50.2334 9.06087 50.3405 8.8444 50.4134 8.59375C50.4863 8.3431 50.5228 8.06966 50.5228 7.77344C50.5228 7.49089 50.4863 7.22656 50.4134 6.98047C50.345 6.72982 50.2425 6.51107 50.1058 6.32422C49.9691 6.13281 49.7982 5.9847 49.5931 5.87988C49.3926 5.77051 49.1601 5.71582 48.8958 5.71582C48.5677 5.71582 48.2692 5.79329 48.0003 5.94824C47.736 6.10319 47.5218 6.30599 47.3577 6.55664C47.1982 6.80273 47.1116 7.06478 47.098 7.34277L46.4691 7.1377C46.5055 6.71387 46.5989 6.33333 46.7493 5.99609C46.9043 5.65885 47.1071 5.37174 47.3577 5.13477C47.6084 4.89779 47.8978 4.71777 48.2259 4.59473C48.5586 4.46712 48.9232 4.40332 49.3196 4.40332C49.8027 4.40332 50.222 4.49447 50.5775 4.67676C50.9329 4.85905 51.2269 5.10742 51.4593 5.42188C51.6963 5.73177 51.8717 6.08724 51.9857 6.48828C52.1042 6.88477 52.1634 7.29948 52.1634 7.73242C52.1634 8.21094 52.0905 8.65755 51.9446 9.07227C51.7988 9.48242 51.5846 9.84245 51.3021 10.1523C51.0241 10.4622 50.6846 10.7038 50.2835 10.877C49.887 11.0501 49.4359 11.1367 48.93 11.1367C48.3968 11.1367 47.9206 11.0342 47.5013 10.8291C47.0866 10.624 46.7334 10.3415 46.4417 9.98145C46.1546 9.62142 45.9359 9.20671 45.7855 8.7373C45.6351 8.2679 45.5599 7.77116 45.5599 7.24707V6.56348C45.5599 5.80697 45.6556 5.09375 45.847 4.42383C46.0384 3.74935 46.3323 3.15462 46.7288 2.63965C47.1299 2.12467 47.6426 1.72135 48.2669 1.42969C48.8913 1.13346 49.6364 0.985352 50.5023 0.985352ZM62.0271 1.0127V11H60.3797V2.96777L57.9392 3.79492V2.43457L61.8289 1.0127H62.0271ZM70.2641 1.0127V11H68.6167V2.96777L66.1762 3.79492V2.43457L70.0659 1.0127H70.2641ZM78.5012 1.0127V11H76.8537V2.96777L74.4133 3.79492V2.43457L78.3029 1.0127H78.5012ZM90.5045 1.0127V11H88.8571V2.96777L86.4166 3.79492V2.43457L90.3063 1.0127H90.5045ZM98.7416 1.0127V11H97.0941V2.96777L94.6537 3.79492V2.43457L98.5433 1.0127H98.7416ZM110.745 1.0127V11H109.097V2.96777L106.657 3.79492V2.43457L110.547 1.0127H110.745ZM118.982 1.0127V11H117.334V2.96777L114.894 3.79492V2.43457L118.784 1.0127H118.982Z" fill="#757575"/>
</svg>
